<svg width="16" height="20" viewBox="0 0 16 20" xmlns="http://www.w3.org/2000/svg"><g fill="#4A4A4A" fill-rule="evenodd"><path d="M15.2 7.444A7.532 7.532 0 0 0 7.6 0 7.532 7.532 0 0 0 0 7.444a7.279 7.279 0 0 0 1.503 4.446l5.417 7.178a.844.844 0 0 0 .089.092l.046.043h.03c.056.038.117.069.181.093l.064.02c.083.051.174.087.27.106a.844.844 0 0 0 .232-.038l.064-.02a.844.844 0 0 0 .181-.094h.03l.046-.042a.844.844 0 0 0 .089-.093l5.417-7.178a7.279 7.279 0 0 0 1.54-4.513zM7.6 1.689a5.84 5.84 0 0 1 5.911 5.755 5.607 5.607 0 0 1-1.165 3.428L7.6 17.176l-4.742-6.3a5.607 5.607 0 0 1-1.17-3.432A5.84 5.84 0 0 1 7.6 1.689z"/><path d="M7.222 10.178a2.956 2.956 0 1 0 0-5.911 2.956 2.956 0 0 0 0 5.91zm0-4.222a1.267 1.267 0 1 1 0 2.533 1.267 1.267 0 0 1 0-2.533z"/></g></svg>