<svg width="20" height="22" viewBox="0 0 20 22" xmlns="http://www.w3.org/2000/svg"><path d="M.638 0A.738.738 0 0 0 0 .714v19.953c0 .373.34.712.713.712h15.201a.74.74 0 0 0 .713-.712v-8.262l2.167-2.167a.713.713 0 0 0 0-1.002l-2.138-2.138a.713.713 0 0 0-.03-.022V4.039a.721.721 0 0 0-.207-.505L13.094.21A.721.721 0 0 0 12.589 0H.713a.774.774 0 0 0-.075 0zm.787 1.426h9.976v3.088c0 .373.34.712.713.712h3.088v2.316l-6.206 6.206a.713.713 0 0 0-.185.326l-.713 2.85a.713.713 0 0 0 .861.869l2.85-.713a.713.713 0 0 0 .334-.193l3.059-3.058v6.124H1.425V1.426zm11.401.527l1.849 1.848h-1.849V1.953zm3.326 6.65L17.28 9.74l-5.166 5.167-1.128-1.129 5.166-5.173zm-6.072 6.28l.92.92-1.232.312.312-1.232z" fill="#4A4A4A"/></svg>