<svg width="18" height="15" viewBox="0 0 18 15" xmlns="http://www.w3.org/2000/svg"><title>Share icon</title><g fill="none" fill-rule="evenodd"><path d="M17.445 1.716A1.153 1.153 0 0 0 15.75.396c-.362.212-.74.382-1.135.502A4.377 4.377 0 0 0 11.965 0a4.364 4.364 0 0 0-4.318 3.77 7.986 7.986 0 0 1-4.512-2.759 1.151 1.151 0 0 0-.893-.425c-.03 0-.06.002-.09.004-.378.03-.716.242-.907.569a4.349 4.349 0 0 0-.59 2.191c0 .521.091 1.028.262 1.501-.184.21-.29.48-.29.767a4.42 4.42 0 0 0 1.15 2.983c-.044.197-.038.405.027.605.249.779.704 1.449 1.292 1.96a5.33 5.33 0 0 1-1.81.094 1.148 1.148 0 0 0-1.219.759c-.18.504.012 1.069.463 1.359A10.247 10.247 0 0 0 6.065 15c6.37 0 10.2-5.128 10.268-10.133.519-.441.975-.95 1.361-1.517a1.157 1.157 0 0 0-.25-1.634z" fill="#FFF"/><path d="M17.445 1.716A1.153 1.153 0 0 0 15.75.396c-.362.212-.74.382-1.135.502A4.377 4.377 0 0 0 11.965 0a4.364 4.364 0 0 0-4.318 3.77 7.986 7.986 0 0 1-4.512-2.759 1.151 1.151 0 0 0-.893-.425c-.03 0-.06.002-.09.004-.378.03-.716.242-.907.569a4.349 4.349 0 0 0-.59 2.191c0 .521.091 1.028.262 1.501-.184.21-.29.48-.29.767a4.42 4.42 0 0 0 1.15 2.983c-.044.197-.038.405.027.605.249.779.704 1.449 1.292 1.96a5.33 5.33 0 0 1-1.81.094 1.148 1.148 0 0 0-1.219.759c-.18.504.012 1.069.463 1.359A10.247 10.247 0 0 0 6.065 15c6.37 0 10.2-5.128 10.268-10.133.519-.441.975-.95 1.361-1.517a1.157 1.157 0 0 0-.25-1.634zM15.17 4.314c.007.137.01.276.01.414 0 4.234-3.223 9.116-9.116 9.116a9.073 9.073 0 0 1-4.912-1.44 6.428 6.428 0 0 0 4.744-1.327 3.206 3.206 0 0 1-2.994-2.224 3.2 3.2 0 0 0 1.446-.055 3.208 3.208 0 0 1-2.57-3.143v-.04c.431.24.926.384 1.45.4a3.204 3.204 0 0 1-.99-4.277 9.092 9.092 0 0 0 6.604 3.347 3.203 3.203 0 0 1 3.12-3.933c.923 0 1.756.389 2.34 1.01a6.393 6.393 0 0 0 2.034-.777 3.22 3.22 0 0 1-1.408 1.772 6.348 6.348 0 0 0 1.84-.504 6.437 6.437 0 0 1-1.598 1.661z" fill="#008281"/></g></svg>