<svg width="20" height="18" viewBox="2 9 20 18" xmlns="http://www.w3.org/2000/svg"><path d="M3.615 26h17.229c.34 0 .615-.276.615-.615v-4.923a.615.615 0 1 0-1.23 0v4.307H4.23v-4.307a.615.615 0 1 0-1.231 0v4.923c0 .34.276.615.615.615zm11.259-9.047l-2.01 2.436v-8.772a.616.616 0 1 0-1.23 0v8.796l-2.03-2.46a.615.615 0 0 0-.874 0 .622.622 0 0 0 0 .877l3.041 3.687c.129.129.3.184.468.175.168.01.34-.046.468-.175l3.04-3.687a.622.622 0 0 0 0-.877.615.615 0 0 0-.873 0z" fill="#008281" fill-rule="evenodd"/></svg>