<svg width="22" height="19" viewBox="1 8 22 19" xmlns="http://www.w3.org/2000/svg"><path d="M21.357 22.25c0 .75-.608 1.357-1.357 1.357h-1.453a2.707 2.707 0 0 0-2.618-2.036H7.786a2.707 2.707 0 0 0-2.618 2.036H3.714c-.749 0-1.357-.608-1.357-1.357v-1.357c0-.75.608-1.357 1.357-1.357H20c.75 0 1.357.608 1.357 1.357v1.357zm-5.428 3.393H7.786a1.358 1.358 0 0 1 0-2.714h8.143a1.358 1.358 0 0 1 0 2.714zm-9.5-14.929c0-.749.608-1.357 1.357-1.357h8.143c.749 0 1.357.608 1.357 1.357v7.465H6.429v-7.465zM20 18.18h-1.357v-7.465A2.714 2.714 0 0 0 15.929 8H7.786a2.714 2.714 0 0 0-2.715 2.714v7.465H3.714A2.714 2.714 0 0 0 1 20.893v1.357a2.714 2.714 0 0 0 2.714 2.714h1.454A2.706 2.706 0 0 0 7.786 27h8.143a2.706 2.706 0 0 0 2.618-2.036H20a2.714 2.714 0 0 0 2.714-2.714v-1.357A2.714 2.714 0 0 0 20 18.179z" fill="#008281" fill-rule="evenodd"/></svg>