<svg width="20" height="20" viewBox="0 0 20 20" xmlns="http://www.w3.org/2000/svg"><title>Marginalia icon</title><g transform="translate(1 1)" fill="none" fill-rule="evenodd"><path d="M14.854 11.104l-.13.527c-.386.152-.695.268-.925.348-.23.08-.498.12-.803.12-.465 0-.826-.116-1.084-.348a1.117 1.117 0 0 1-.387-.864c0-.094.005-.214.015-.36.01-.147.042-.33.097-.548l.422-1.56a5.08 5.08 0 0 0 .096-.453c.022-.135.033-.245.033-.331 0-.188-.047-.334-.141-.44-.094-.105-.246-.158-.457-.158-.149 0-.337.067-.566.2-.228.132-.46.31-.694.533L9.363 12h-1.94l.821-3.574c.043-.196.075-.354.097-.475.021-.12.032-.226.032-.316 0-.188-.047-.334-.14-.44-.094-.105-.249-.158-.463-.158-.122 0-.29.049-.504.147-.215.097-.485.293-.809.586L5.49 12H3.55l.833-3.604c.023-.109.054-.253.09-.433.038-.18.056-.324.056-.434 0-.222-.043-.376-.129-.46-.086-.084-.255-.126-.51-.126-.124 0-.252.02-.383.059a5.26 5.26 0 0 0-.337.111l.129-.527c.316-.129.619-.24.908-.331.29-.092.563-.138.82-.138.477 0 .82.097 1.032.29.21.194.359.443.445.747h.04c.392-.36.768-.633 1.132-.82a2.696 2.696 0 0 1 1.254-.281c.402 0 .732.107.99.322.258.215.4.48.428.797h.04c.419-.36.807-.636 1.167-.83.36-.193.77-.29 1.23-.29.434 0 .774.12 1.02.358s.369.527.369.867c0 .09-.007.216-.02.378a2.852 2.852 0 0 1-.097.519L13.61 9.82c-.039.137-.074.293-.105.47a2.489 2.489 0 0 0-.047.398c0 .226.05.38.15.462.099.082.274.123.524.123.117 0 .25-.02.398-.061.149-.041.256-.077.323-.108z" fill="#008281"/><circle stroke="#008281" stroke-width="1.75" cx="9" cy="9" r="9"/></g></svg>