<svg width="15" height="19" viewBox="0 0 15 19" xmlns="http://www.w3.org/2000/svg"><g fill="#4A4A4A" fill-rule="evenodd"><path d="M11 3H3.815a.987.987 0 0 0-.69.284L.308 6.044A1.039 1.039 0 0 0 0 6.787v11.188C0 18.541.448 19 1 19h10c.552 0 1-.46 1-1.026V4.026C12 3.459 11.552 3 11 3zM3.6 5.656v1.447H2.124L3.6 5.656zM10 16.949H2V9.154h2.6c.552 0 1-.46 1-1.026V5.051H10V16.95z"/><path d="M14.02 18c-.542 0-.98-.468-.98-1.047V2.093H5.98c-.541 0-.98-.468-.98-1.046C5 .468 5.439 0 5.98 0h8.04c.541 0 .98.468.98 1.047v15.906c0 .579-.439 1.047-.98 1.047z"/></g></svg>