<svg width="24" height="18" viewBox="0 0 24 18" xmlns="http://www.w3.org/2000/svg"><path d="M11.812 0a3.392 3.392 0 0 0-3.375 3.375 3.4 3.4 0 0 0 2.25 3.182v1.318H3.375c-.668 0-1.111.618-1.125 1.125v2.443A3.4 3.4 0 0 0 0 14.625 3.392 3.392 0 0 0 3.375 18a3.392 3.392 0 0 0 3.375-3.375 3.4 3.4 0 0 0-2.25-3.182v-1.318h6.187v1.318a3.4 3.4 0 0 0-2.25 3.182A3.392 3.392 0 0 0 11.812 18a3.392 3.392 0 0 0 3.375-3.375 3.4 3.4 0 0 0-2.25-3.182v-1.318h6.188v1.318a3.4 3.4 0 0 0-2.25 3.182A3.392 3.392 0 0 0 20.25 18a3.392 3.392 0 0 0 3.375-3.375 3.4 3.4 0 0 0-2.25-3.182V9c0-.589-.536-1.125-1.125-1.125h-7.313V6.557a3.4 3.4 0 0 0 2.25-3.182A3.392 3.392 0 0 0 11.812 0zm0 2.25c.635 0 1.125.49 1.125 1.125S12.447 4.5 11.812 4.5c-.634 0-1.125-.49-1.125-1.125s.49-1.125 1.125-1.125zM3.375 13.5c.635 0 1.125.49 1.125 1.125s-.49 1.125-1.125 1.125-1.125-.49-1.125-1.125.49-1.125 1.125-1.125zm8.437 0c.635 0 1.125.49 1.125 1.125s-.49 1.125-1.125 1.125c-.634 0-1.125-.49-1.125-1.125s.49-1.125 1.125-1.125zm8.438 0c.635 0 1.125.49 1.125 1.125s-.49 1.125-1.125 1.125-1.125-.49-1.125-1.125.49-1.125 1.125-1.125z" fill="#4A4A4A"/></svg>