<svg width="12" height="13" viewBox="12 11 12 13" xmlns="http://www.w3.org/2000/svg"><g id="Group-2" fill="none" fill-rule="evenodd" transform="translate(12 12)"><path d="M8.5 7.584a.317.317 0 0 1-.1.23l-.501.502a.317.317 0 0 1-.461 0L3.5 4.378-.438 8.316a.317.317 0 0 1-.46 0l-.502-.501a.317.317 0 0 1 0-.461l4.67-4.67a.317.317 0 0 1 .46 0l4.67 4.67c.067.067.1.143.1.23z" id="Shape-Copy-5" fill="#008281" transform="matrix(0 -1 -1 0 9 9)"/><path d="M9.417.25v10.5" id="Path-2" stroke="#008281" stroke-width="1.25"/></g><style>#Path-2{stroke:&amp;quot;#008281&amp;quot;}.unavailable #Path-2{stroke:red}</style></svg>