<svg width="18" height="14" viewBox="0 0 18 14" xmlns="http://www.w3.org/2000/svg"><title>Email icon</title><g fill="none" fill-rule="evenodd"><path d="M2.25 0A2.25 2.25 0 0 0 0 2.25v9a2.25 2.25 0 0 0 2.25 2.25h13.5A2.25 2.25 0 0 0 18 11.25v-9A2.25 2.25 0 0 0 15.75 0H2.25z" fill="#FFF"/><path d="M16.875 11.25c0 .114-.022.222-.053.325l-5.01-5.387 5.063-3.938v9zM2 12.345l5.076-5.41L9 8.39l1.84-1.463L16 12.345c-.08.018-13.92.018-14 0zm-.875-1.095v-9l5.063 3.938-5.01 5.387a1.106 1.106 0 0 1-.053-.325zM16.313 1.125L9 6.75 1.687 1.125h14.626zM15.75 0H2.25A2.25 2.25 0 0 0 0 2.25v9a2.25 2.25 0 0 0 2.25 2.25h13.5A2.25 2.25 0 0 0 18 11.25v-9A2.25 2.25 0 0 0 15.75 0z" fill="#008281"/></g></svg>